 <svg  version="1.0" xmlns="http://www.w3.org/2000/svg"  width="900.000000pt" height="156.000000pt" viewBox="0 0 900.000000 156.000000"  preserveAspectRatio="xMidYMid meet">  <g transform="translate(0.000000,156.000000) scale(0.100000,-0.100000)" fill="#6a9ae9" stroke="none"> <path d="M4149 1323 c-11 -13 -14 -66 -14 -242 0 -124 -1 -232 -3 -238 -4 -22 -16 -15 -73 40 -30 29 -77 64 -104 78 -44 21 -63 24 -160 23 -122 0 -154 -11 -237 -74 -116 -89 -165 -207 -154 -370 15 -219 177 -370 396 -370 124 0 198 33 286 130 18 19 36 32 40 28 3 -4 9 -39 12 -77 5 -71 15 -87 47 -75 13 5 15 76 15 548 0 297 3 550 6 562 3 13 -1 28 -11 38 -21 20 -29 20 -46 -1z m-229 -420 c62 -22 112 -57 149 -104 53 -66 64 -102 65 -224 1 -129 -14 -167 -95 -246 -63 -62 -140 -92 -234 -92 -138 -1 -247 68 -306 192 -28 58 -31 76 -30 146 1 111 29 184 97 252 95 96 222 123 354 76z"/> <path d="M4770 1260 c-113 -26 -141 -39 -188 -83 -99 -95 -110 -258 -24 -357 46 -54 129 -92 288 -130 247 -60 334 -124 334 -247 0 -76 -61 -151 -149 -184 -134 -50 -316 -29 -454 51 -73 42 -97 45 -97 11 0 -38 90 -96 203 -131 84 -27 269 -27 344 -1 148 51 213 137 215 282 0 58 -3 73 -29 111 -39 59 -101 98 -208 131 -49 15 -111 34 -136 42 -26 8 -54 15 -64 15 -9 0 -31 6 -48 14 -18 7 -45 18 -60 25 -52 21 -99 65 -118 109 -23 53 -24 91 -4 138 65 156 326 198 548 88 39 -19 54 -18 68 8 10 18 8 24 -12 39 -38 28 -124 58 -217 74 -99 18 -96 18 -192 -5z"/> <path d="M78 1248 c-3 -7 -6 -250 -7 -541 -2 -488 -1 -528 15 -534 9 -3 23 -2 32 3 12 8 14 70 13 445 -2 507 -3 505 71 392 25 -37 62 -102 83 -143 22 -41 49 -88 61 -105 12 -16 34 -55 48 -85 15 -30 49 -89 76 -130 27 -41 67 -109 88 -150 28 -53 44 -75 58 -75 13 0 43 40 107 145 49 80 95 159 103 175 15 32 24 47 66 112 16 23 28 45 28 49 0 3 19 39 43 78 24 39 53 92 65 117 25 51 58 87 70 75 4 -4 7 -202 8 -439 1 -238 2 -437 2 -443 2 -16 28 -25 47 -18 14 6 15 70 13 543 l-3 536 -23 3 c-16 3 -27 -5 -40 -28 -9 -18 -34 -58 -54 -90 -21 -33 -38 -61 -38 -64 0 -2 -17 -31 -38 -63 -21 -32 -48 -77 -60 -100 -12 -23 -34 -62 -49 -85 -36 -55 -43 -68 -72 -120 -13 -24 -37 -68 -53 -98 -102 -185 -121 -200 -162 -125 -21 40 -122 215 -141 246 -5 9 -23 40 -38 68 -15 29 -48 84 -73 124 -26 40 -80 131 -123 202 -55 94 -82 131 -97 133 -12 2 -24 -3 -26 -10z"/> <path d="M6780 987 c-74 -9 -156 -50 -208 -103 -50 -52 -62 -46 -62 30 0 49 -4 65 -16 70 -43 17 -44 11 -46 -400 -1 -215 2 -396 6 -402 9 -14 42 -16 50 -3 4 5 7 126 9 268 2 244 3 260 24 300 65 124 150 173 296 173 125 0 188 -35 247 -135 24 -39 24 -43 25 -318 0 -292 2 -302 45 -294 13 2 15 42 15 287 0 260 -2 290 -20 339 -20 54 -102 151 -127 151 -6 0 -19 6 -27 14 -23 20 -136 33 -211 23z"/> <path d="M1755 981 c-134 -37 -228 -125 -279 -264 -24 -64 -24 -211 0 -275 63 -170 206 -272 379 -272 130 1 238 52 316 151 44 55 58 86 75 169 18 83 18 113 -2 197 -30 130 -95 212 -212 268 -47 23 -73 28 -152 31 -52 2 -108 -1 -125 -5z m230 -78 c66 -23 156 -111 177 -173 24 -70 37 -152 27 -178 -5 -13 -9 -37 -9 -53 0 -69 -83 -185 -159 -224 -182 -92 -380 -26 -468 155 -22 43 -28 73 -31 141 -4 79 -2 90 28 152 38 81 101 145 172 174 68 28 190 31 263 6z"/> <path d="M2725 981 c-216 -58 -346 -301 -281 -523 52 -177 200 -288 386 -288 94 0 141 14 226 67 45 29 114 101 114 119 0 4 6 15 13 23 26 31 47 123 47 205 0 96 -25 178 -75 246 -45 61 -70 82 -140 120 -54 29 -70 32 -160 36 -55 2 -113 0 -130 -5z m243 -81 c24 -11 69 -46 101 -78 47 -46 62 -69 76 -117 27 -94 30 -139 10 -213 -39 -144 -123 -223 -271 -253 -53 -11 -71 -10 -130 4 -86 22 -132 52 -189 125 -71 91 -91 190 -61 306 26 97 109 192 201 229 60 24 207 22 263 -3z"/> <path d="M5702 981 c-19 -5 -39 -14 -45 -20 -6 -6 -18 -11 -27 -11 -8 0 -39 -21 -68 -46 -149 -130 -183 -344 -86 -534 23 -46 110 -131 154 -151 95 -45 112 -49 198 -49 99 1 166 20 241 69 53 34 68 56 50 77 -16 19 -27 18 -60 -10 -76 -64 -249 -90 -348 -52 -61 23 -146 89 -176 136 -24 38 -33 84 -17 93 4 3 50 13 102 22 52 9 118 21 145 26 28 5 86 15 130 23 125 22 224 45 262 61 29 12 34 19 30 37 -3 13 -9 41 -13 63 -15 84 -88 179 -179 232 -56 33 -67 36 -160 39 -55 2 -115 -1 -133 -5z m251 -88 c86 -43 157 -134 157 -201 0 -35 3 -33 -120 -57 -137 -25 -367 -72 -431 -87 -73 -17 -82 -9 -77 65 8 112 93 243 185 282 89 39 207 38 286 -2z"/> <path d="M7605 984 c-48 -8 -134 -74 -162 -124 -20 -37 -24 -56 -21 -108 4 -56 7 -66 42 -101 40 -41 128 -91 161 -91 11 0 52 -7 90 -16 184 -42 215 -59 240 -129 12 -37 12 -43 -8 -80 -38 -68 -119 -105 -234 -105 -59 0 -184 34 -246 68 -52 28 -71 22 -65 -19 3 -25 57 -66 97 -75 14 -3 47 -12 73 -20 72 -22 219 -18 288 7 71 26 126 70 145 116 18 43 20 135 3 166 -32 56 -99 97 -193 117 -22 5 -53 13 -68 19 -16 6 -40 11 -54 11 -46 0 -133 33 -170 65 -28 24 -36 39 -40 75 -6 58 23 103 88 137 67 34 211 36 301 3 35 -13 68 -27 74 -32 15 -11 48 27 40 47 -3 9 -23 23 -43 31 -21 8 -47 19 -57 25 -20 11 -229 21 -281 13z"/> <path d="M8459 981 c-72 -15 -173 -87 -217 -155 -58 -91 -65 -114 -65 -236 0 -110 1 -118 33 -184 39 -83 79 -129 145 -171 80 -50 131 -65 225 -65 119 0 189 22 253 82 42 39 48 50 38 62 -14 17 -33 12 -76 -20 -33 -25 -162 -64 -210 -64 -50 0 -164 37 -204 66 -52 39 -106 99 -121 135 -11 25 -11 33 1 44 8 8 82 25 164 40 188 32 248 43 305 57 25 6 65 14 90 18 25 4 62 14 82 23 35 15 37 18 32 49 -16 92 -80 209 -138 252 -72 54 -117 70 -211 72 -49 2 -106 -1 -126 -5z m237 -81 c113 -52 217 -225 146 -244 -9 -2 -57 -11 -107 -21 -117 -21 -229 -44 -285 -57 -25 -6 -65 -14 -90 -18 -25 -5 -62 -11 -82 -15 l-38 -8 0 77 c0 58 5 87 21 119 37 73 86 124 151 156 55 28 71 31 150 31 68 0 100 -5 134 -20z"/> </g> </svg> 