<svg xmlns="http://www.w3.org/2000/svg" version="1.0" preserveAspectRatio="xMidYMid meet" viewBox="279.13 29.1 216.82 179.4">

<g transform="translate(0.000000,400.000000) scale(0.100000,-0.100000)" fill="#000000" stroke="none">
<path d="M3816 3695 c-81 -29 -127 -82 -145 -167 -20 -93 14 -181 90 -234 37 -26 51 -29 115 -29 65 0 76 3 116 31 122 89 126 287 7 370 -35 24 -94 44 -129 43 -8 0 -33 -6 -54 -14z"/>
<path d="M3556 3123 c-7 -16 -28 -74 -45 -130 -37 -118 -85 -197 -171 -276 -98 -91 -184 -130 -360 -164 l-45 -8 -7 -58 c-5 -41 -16 -70 -40 -103 -98 -136 -112 -181 -84 -277 23 -79 64 -130 133 -163 l58 -29 880 0 c875 0 880 0 926 21 119 55 184 198 149 326 -6 21 -36 64 -70 102 -59 65 -60 68 -60 124 l0 59 -100 21 c-118 24 -182 52 -268 116 -110 82 -169 179 -234 386 l-23 75 -312 3 -312 2 -15 -27z m-23 -480 c9 -88 9 -212 1 -253 -8 -38 7 -39 -211 16 -84 21 -153 42 -153 45 0 4 14 12 32 20 58 24 176 107 245 173 37 36 71 65 74 66 3 0 9 -30 12 -67z m790 -10 c51 -42 126 -99 167 -126 41 -26 76 -52 78 -56 1 -4 -28 -13 -65 -21 -38 -7 -115 -26 -172 -42 -57 -16 -106 -27 -108 -24 -16 16 -13 346 4 346 3 0 46 -35 96 -77z"/>
</g>
</svg>